<svg aria-hidden="true" style="width:0;height:0;position:absolute;overflow:hidden" xmlns="http://www.w3.org/2000/svg"><defs><symbol id="icon-favorite" viewBox="0 0 32 32"><path fill="#ff6b08" style="fill:var(--color1,#ff6b08)" d="m16 30.144-2.24-2.217C5.44 20.64 0 15.726 0 9.71 0 4.793 3.84.995 8.8.995c2.72.002 5.44 1.269 7.2 3.326A9.64 9.64 0 0 1 23.195.998h.005c4.96 0 8.8 3.801 8.8 8.711 0 6.021-5.44 10.933-13.76 18.217L16 30.145z"/></symbol><symbol id="icon-logo" viewBox="0 0 32 32"><path fill="none" stroke="#fff" stroke-linejoin="round" stroke-linecap="round" stroke-width="2.909" d="M27.375 1.455H4.626a3.171 3.171 0 0 0-3.171 3.171v22.749a3.171 3.171 0 0 0 3.171 3.171h22.749a3.171 3.171 0 0 0 3.171-3.171v0V4.626a3.171 3.171 0 0 0-3.171-3.171v0zm-18.648 0v29.091M23.273 1.455v29.091M1.455 16h29.091M1.455 8.727h7.273M1.455 23.273h7.273m14.545 0h7.273M23.273 8.727h7.273"/></symbol><symbol id="icon-search" viewBox="0 0 32 32"><path fill="none" stroke="#fff" style="stroke:var(--color2,#fff)" stroke-linejoin="round" stroke-linecap="round" stroke-width="2.667" d="M14.667 25.333c5.891 0 10.667-4.776 10.667-10.667S20.558 3.999 14.667 3.999v0C8.776 3.999 4 8.775 4 14.666s4.776 10.667 10.667 10.667v0zM28 28l-5.8-5.8"/></symbol></defs></svg>