<svg aria-hidden="true" style="position: absolute; width: 0; height: 0; overflow: hidden;" version="1.1" xmlns="http://www.w3.org/2000/svg" xmlns:xlink="http://www.w3.org/1999/xlink">
<defs>
<symbol id="icon-favorite" viewBox="0 0 32 32">
<path fill="#ff6b08" style="fill: var(--color1, #ff6b08)" d="M16 30.144l-2.24-2.217c-8.32-7.287-13.76-12.201-13.76-18.217 0-4.917 3.84-8.715 8.8-8.715 2.72 0.002 5.44 1.269 7.2 3.326 1.761-2.019 4.329-3.296 7.195-3.323l0.005-0c4.96 0 8.8 3.801 8.8 8.711 0 6.021-5.44 10.933-13.76 18.217l-2.24 2.219z"></path>
</symbol>
<symbol id="icon-logo" viewBox="0 0 32 32">
      <path fill="none" stroke="#fff" stroke-linejoin="round" stroke-linecap="round" stroke-miterlimit="4" stroke-width="2.9091" d="M27.375 1.455h-22.749c-1.751 0-3.171 1.42-3.171 3.171v0 22.749c0 1.751 1.42 3.171 3.171 3.171h22.749c1.751 0 3.171-1.42 3.171-3.171v0-22.749c0-1.751-1.42-3.171-3.171-3.171v0zM8.727 1.455v29.091M23.273 1.455v29.091M1.455 16h29.091M1.455 8.727h7.273M1.455 23.273h7.273M23.273 23.273h7.273M23.273 8.727h7.273"></path>
    </symbol>
<symbol id="icon-search" viewBox="0 0 32 32">
<path fill="none" stroke="#fff" style="stroke: var(--color2, #fff)" stroke-linejoin="round" stroke-linecap="round" stroke-miterlimit="4" stroke-width="2.6667" d="M14.667 25.333c5.891 0 10.667-4.776 10.667-10.667s-4.776-10.667-10.667-10.667v0c-5.891 0-10.667 4.776-10.667 10.667s4.776 10.667 10.667 10.667v0zM28 28l-5.8-5.8"></path>
</symbol>
</defs>
</svg>
